<svg width="28" height="28" viewBox="0 0 28 28" fill="none" xmlns="http://www.w3.org/2000/svg">
<g clip-path="url(#clip0_385_87425)">
<path d="M6.99998 8.16671C6.99998 6.61961 7.61456 5.13588 8.70852 4.04192C9.80249 2.94796 11.2862 2.33337 12.8333 2.33337C14.3804 2.33337 15.8641 2.94796 16.9581 4.04192C18.0521 5.13588 18.6666 6.61961 18.6666 8.16671C18.6666 9.7138 18.0521 11.1975 16.9581 12.2915C15.8641 13.3855 14.3804 14 12.8333 14C11.2862 14 9.80249 13.3855 8.70852 12.2915C7.61456 11.1975 6.99998 9.7138 6.99998 8.16671ZM5.62565 17.1174C7.49581 15.9764 10.0391 15.1667 12.8333 15.1667C13.3548 15.1667 13.8681 15.1947 14.3686 15.2484C14.569 15.2699 14.7605 15.3429 14.9242 15.4604C15.088 15.5779 15.2185 15.7358 15.3031 15.9187C15.3877 16.1016 15.4235 16.3034 15.4069 16.5042C15.3904 16.7051 15.3221 16.8983 15.2086 17.0649C14.4183 18.2248 13.997 19.5965 14 21C14 22.0734 14.2415 23.0884 14.6708 23.9949C14.7545 24.1715 14.7924 24.3663 14.7812 24.5613C14.77 24.7564 14.7099 24.9456 14.6066 25.1114C14.5032 25.2772 14.3599 25.4145 14.1897 25.5105C14.0195 25.6065 13.8279 25.6582 13.6325 25.6609L12.8333 25.6667C10.2328 25.6667 7.77581 25.5034 5.93481 25.0157C5.01898 24.773 4.15681 24.4254 3.50348 23.9004C2.81165 23.345 2.33331 22.5692 2.33331 21.5834C2.33331 20.6652 2.75098 19.8065 3.31798 19.0879C3.89431 18.3587 4.69115 17.6879 5.62565 17.1162V17.1174ZM21 16.3334C21.3094 16.3334 21.6061 16.4563 21.8249 16.6751C22.0437 16.8939 22.1666 17.1906 22.1666 17.5V19.8334H24.5C24.8094 19.8334 25.1061 19.9563 25.3249 20.1751C25.5437 20.3939 25.6666 20.6906 25.6666 21C25.6666 21.3095 25.5437 21.6062 25.3249 21.825C25.1061 22.0438 24.8094 22.1667 24.5 22.1667H22.1666V24.5C22.1666 24.8095 22.0437 25.1062 21.8249 25.325C21.6061 25.5438 21.3094 25.6667 21 25.6667C20.6906 25.6667 20.3938 25.5438 20.175 25.325C19.9562 25.1062 19.8333 24.8095 19.8333 24.5V22.1667H17.5C17.1906 22.1667 16.8938 22.0438 16.675 21.825C16.4562 21.6062 16.3333 21.3095 16.3333 21C16.3333 20.6906 16.4562 20.3939 16.675 20.1751C16.8938 19.9563 17.1906 19.8334 17.5 19.8334H19.8333V17.5C19.8333 17.1906 19.9562 16.8939 20.175 16.6751C20.3938 16.4563 20.6906 16.3334 21 16.3334Z" fill="#0D6EFD"/>
</g>
<defs>
<clipPath id="clip0_385_87425">
<rect width="28" height="28" fill="white"/>
</clipPath>
</defs>
</svg>
