<svg width="20" height="20" viewBox="0 0 20 20" fill="none" xmlns="http://www.w3.org/2000/svg">
<g clip-path="url(#clip0_392_4399)">
<path fill-rule="evenodd" clip-rule="evenodd" d="M4.16676 7.50002C4.16676 4.27836 6.77843 1.66669 10.0001 1.66669C13.2218 1.66669 15.8335 4.27836 15.8335 7.50002V10.6366L17.3518 13.6734C17.6565 14.2829 17.2134 15 16.532 15H13.2283C12.8582 16.4377 11.5531 17.5 9.99996 17.5C8.44679 17.5 7.14167 16.4377 6.77164 15H3.46827C2.78683 15 2.34362 14.2829 2.64837 13.6734L4.16676 10.6366V7.50002ZM8.55629 15C8.84446 15.4982 9.38304 15.8334 9.99996 15.8334C10.6169 15.8334 11.1555 15.4982 11.4436 15H8.55629ZM10.0001 3.33335C7.69891 3.33335 5.83342 5.19884 5.83342 7.50002V10.6366C5.83342 10.8954 5.77318 11.1505 5.65747 11.382L4.68179 13.3334H15.3184L14.3427 11.382C14.227 11.1505 14.1668 10.8954 14.1668 10.6366V7.50002C14.1668 5.19884 12.3013 3.33335 10.0001 3.33335Z" fill="#0A1929" fill-opacity="0.85"/>
</g>
<defs>
<clipPath id="clip0_392_4399">
<rect width="20" height="20" fill="white"/>
</clipPath>
</defs>
</svg>
