<svg width="20" height="20" viewBox="0 0 20 20" fill="none" xmlns="http://www.w3.org/2000/svg">
<g clip-path="url(#clip0_370_46655)">
<path fill-rule="evenodd" clip-rule="evenodd" d="M8.32166 3.54615C8.1127 4.2415 7.93566 5.03808 7.80004 5.91197C8.51133 5.86028 9.24742 5.83329 10.0001 5.83329C10.7527 5.83329 11.4888 5.86028 12.2001 5.91197C12.0645 5.03808 11.8875 4.24149 11.6785 3.54614C11.143 3.40733 10.5807 3.33329 10.0001 3.33329C9.41941 3.33329 8.85716 3.40733 8.32166 3.54615ZM13.6149 4.39735C13.7303 4.93228 13.8293 5.49838 13.9103 6.08971C14.5017 6.17068 15.0677 6.26969 15.6027 6.38512C15.0886 5.59018 14.4098 4.91143 13.6149 4.39735ZM16.4539 8.32154C15.7586 8.11258 14.9619 7.93553 14.0881 7.79992C14.1397 8.51121 14.1667 9.24729 14.1667 9.99996C14.1667 10.7526 14.1397 11.4887 14.0881 12.2C14.9619 12.0644 15.7586 11.8874 16.4539 11.6784C16.5927 11.1429 16.6667 10.5806 16.6667 9.99996C16.6667 9.41929 16.5927 8.85704 16.4539 8.32154ZM15.6027 13.6148C15.0677 13.7302 14.5017 13.8292 13.9103 13.9102C13.8293 14.5015 13.7303 15.0676 13.6149 15.6025C14.4098 15.0885 15.0886 14.4097 15.6027 13.6148ZM11.6785 16.4538C11.8875 15.7585 12.0645 14.9618 12.2001 14.088C11.4888 14.1396 10.7527 14.1666 10.0001 14.1666C9.24742 14.1666 8.51133 14.1396 7.80004 14.088C7.93566 14.9618 8.1127 15.7585 8.32166 16.4538C8.85716 16.5926 9.41941 16.6666 10.0001 16.6666C10.5807 16.6666 11.143 16.5926 11.6785 16.4538ZM6.38524 15.6025C6.26981 15.0676 6.1708 14.5015 6.08983 13.9102C5.49849 13.8292 4.9324 13.7302 4.39747 13.6148C4.91156 14.4097 5.59031 15.0885 6.38524 15.6025ZM3.54627 11.6784C4.24162 11.8874 5.03821 12.0644 5.91209 12.2C5.86041 11.4887 5.83342 10.7526 5.83342 9.99996C5.83342 9.24729 5.86041 8.51121 5.91209 7.79992C5.03821 7.93553 4.24162 8.11258 3.54627 8.32154C3.40745 8.85704 3.33341 9.41929 3.33341 9.99996C3.33341 10.5806 3.40745 11.1429 3.54627 11.6784ZM4.39747 6.38512C4.9324 6.26969 5.49849 6.17068 6.08983 6.08971C6.1708 5.49837 6.26981 4.93228 6.38524 4.39735C5.59031 4.91143 4.91155 5.59018 4.39747 6.38512ZM7.59962 7.5995C7.53486 8.36396 7.50008 9.16813 7.50008 9.99996C7.50008 10.8318 7.53486 11.636 7.59962 12.4004C8.36408 12.4652 9.16825 12.5 10.0001 12.5C10.8319 12.5 11.6361 12.4652 12.4005 12.4004C12.4653 11.636 12.5001 10.8318 12.5001 9.99996C12.5001 9.16813 12.4653 8.36396 12.4005 7.5995C11.6361 7.53474 10.8319 7.49996 10.0001 7.49996C9.16825 7.49996 8.36408 7.53474 7.59962 7.5995ZM7.40282 2.07958C8.22122 1.81135 9.09458 1.66663 10.0001 1.66663C10.9056 1.66663 11.7789 1.81135 12.5973 2.07958C15.1112 2.90346 17.0966 4.88886 17.9205 7.4027C18.1887 8.22109 18.3334 9.09446 18.3334 9.99996C18.3334 10.9055 18.1887 11.7788 17.9205 12.5972C17.0966 15.111 15.1112 17.0965 12.5973 17.9204C11.7789 18.1885 10.9056 18.3333 10.0001 18.3333C9.09458 18.3333 8.22122 18.1885 7.40282 17.9204C4.88898 17.0965 2.90358 15.111 2.0797 12.5972C1.81147 11.7788 1.66675 10.9055 1.66675 9.99996C1.66675 9.09446 1.81147 8.22109 2.0797 7.4027C2.90358 4.88886 4.88898 2.90346 7.40282 2.07958Z" fill="#0A1929" fill-opacity="0.65"/>
</g>
<defs>
<clipPath id="clip0_370_46655">
<rect width="20" height="20" fill="white"/>
</clipPath>
</defs>
</svg>
