<svg width="20" height="20" viewBox="0 0 20 20" fill="none" xmlns="http://www.w3.org/2000/svg">
<g clip-path="url(#clip0_392_4394)">
<path d="M15.8333 2.5C16.4963 2.5 17.1322 2.76339 17.6011 3.23223C18.0699 3.70107 18.3333 4.33696 18.3333 5V13.3333C18.3333 13.9964 18.0699 14.6323 17.6011 15.1011C17.1322 15.5699 16.4963 15.8333 15.8333 15.8333H6.11079L3.33329 17.9167C2.64663 18.4317 1.66663 17.9417 1.66663 17.0833V5C1.66663 4.33696 1.93002 3.70107 2.39886 3.23223C2.8677 2.76339 3.50358 2.5 4.16663 2.5H15.8333ZM15.8333 4.16667H4.16663C3.94561 4.16667 3.73365 4.25446 3.57737 4.41074C3.42109 4.56702 3.33329 4.77899 3.33329 5V15.8333L5.11079 14.5C5.39929 14.2836 5.75018 14.1667 6.11079 14.1667H15.8333C16.0543 14.1667 16.2663 14.0789 16.4225 13.9226C16.5788 13.7663 16.6666 13.5543 16.6666 13.3333V5C16.6666 4.77899 16.5788 4.56702 16.4225 4.41074C16.2663 4.25446 16.0543 4.16667 15.8333 4.16667ZM9.16663 10C9.37903 10.0002 9.58332 10.0816 9.73777 10.2274C9.89221 10.3732 9.98516 10.5725 9.9976 10.7845C10.0101 10.9965 9.94106 11.2053 9.80474 11.3682C9.66841 11.5311 9.47504 11.6357 9.26413 11.6608L9.16663 11.6667H6.66663C6.45423 11.6664 6.24993 11.5851 6.09549 11.4393C5.94104 11.2935 5.8481 11.0942 5.83565 10.8822C5.8232 10.6701 5.89219 10.4614 6.02851 10.2985C6.16484 10.1356 6.35821 10.0309 6.56913 10.0058L6.66663 10H9.16663ZM13.3333 6.66667C13.5543 6.66667 13.7663 6.75446 13.9225 6.91074C14.0788 7.06703 14.1666 7.27899 14.1666 7.5C14.1666 7.72101 14.0788 7.93298 13.9225 8.08926C13.7663 8.24554 13.5543 8.33333 13.3333 8.33333H6.66663C6.44561 8.33333 6.23365 8.24554 6.07737 8.08926C5.92109 7.93298 5.83329 7.72101 5.83329 7.5C5.83329 7.27899 5.92109 7.06703 6.07737 6.91074C6.23365 6.75446 6.44561 6.66667 6.66663 6.66667H13.3333Z" fill="#0A1929" fill-opacity="0.85"/>
</g>
<defs>
<clipPath id="clip0_392_4394">
<rect width="20" height="20" fill="white"/>
</clipPath>
</defs>
</svg>
