<svg width="20" height="20" viewBox="0 0 20 20" fill="none" xmlns="http://www.w3.org/2000/svg">
<g clip-path="url(#clip0_370_46651)">
<path fill-rule="evenodd" clip-rule="evenodd" d="M3.33341 9.99996C3.33353 8.717 3.70384 7.46133 4.3999 6.38361C5.09597 5.30589 6.08822 4.45191 7.25759 3.92414C8.42696 3.39636 9.72378 3.21721 10.9924 3.40819C12.2611 3.59916 13.4477 4.15215 14.4099 5.00079C15.3721 5.84943 16.0689 6.95768 16.4169 8.19255C16.7648 9.42742 16.7491 10.7365 16.3715 11.9626C15.9939 13.1887 15.2706 14.2799 14.2882 15.1051C13.3059 15.9303 12.1063 16.4546 10.8334 16.615V11.6666H12.5001C12.7211 11.6666 12.9331 11.5788 13.0893 11.4225C13.2456 11.2663 13.3334 11.0543 13.3334 10.8333C13.3334 10.6123 13.2456 10.4003 13.0893 10.244C12.9331 10.0878 12.7211 9.99996 12.5001 9.99996H10.8334V8.33329C10.8334 8.11228 10.9212 7.90032 11.0775 7.74404C11.2338 7.58776 11.4457 7.49996 11.6667 7.49996H12.0834C12.3044 7.49996 12.5164 7.41216 12.6727 7.25588C12.829 7.0996 12.9167 6.88764 12.9167 6.66663C12.9167 6.44561 12.829 6.23365 12.6727 6.07737C12.5164 5.92109 12.3044 5.83329 12.0834 5.83329H11.6667C11.0037 5.83329 10.3678 6.09668 9.89898 6.56553C9.43014 7.03437 9.16675 7.67025 9.16675 8.33329V9.99996H7.50008C7.27907 9.99996 7.06711 10.0878 6.91083 10.244C6.75455 10.4003 6.66675 10.6123 6.66675 10.8333C6.66675 11.0543 6.75455 11.2663 6.91083 11.4225C7.06711 11.5788 7.27907 11.6666 7.50008 11.6666H9.16675V16.615C7.55567 16.4118 6.0741 15.6277 5.00008 14.4097C3.92607 13.1918 3.33344 11.6238 3.33341 9.99996ZM10.0001 18.3333C14.6026 18.3333 18.3334 14.6025 18.3334 9.99996C18.3334 5.39746 14.6026 1.66663 10.0001 1.66663C5.39758 1.66663 1.66675 5.39746 1.66675 9.99996C1.66675 14.6025 5.39758 18.3333 10.0001 18.3333Z" fill="#0A1929" fill-opacity="0.65"/>
</g>
<defs>
<clipPath id="clip0_370_46651">
<rect width="20" height="20" fill="white"/>
</clipPath>
</defs>
</svg>
