<svg width="40" height="40" viewBox="0 0 40 40" fill="none" xmlns="http://www.w3.org/2000/svg">
<g clip-path="url(#clip0_141_32803)">
<path d="M20 40C31.0457 40 40 31.0457 40 20C40 8.9543 31.0457 0 20 0C8.9543 0 0 8.9543 0 20C0 31.0457 8.9543 40 20 40Z" fill="#F0F0F0"/>
<path d="M19.9998 0C12.0706 0 5.21938 4.61445 1.98438 11.3044H38.0152C34.7803 4.61445 27.929 0 19.9998 0Z" fill="#FF9811"/>
<path d="M19.9998 40.0002C27.929 40.0002 34.7803 35.3857 38.0153 28.6958H1.98438C5.21938 35.3857 12.0706 40.0002 19.9998 40.0002Z" fill="#6DA544"/>
<path d="M19.9995 26.9564C23.8414 26.9564 26.9559 23.8419 26.9559 19.9999C26.9559 16.158 23.8414 13.0435 19.9995 13.0435C16.1575 13.0435 13.043 16.158 13.043 19.9999C13.043 23.8419 16.1575 26.9564 19.9995 26.9564Z" fill="#0052B4"/>
<path d="M20.0002 24.3477C22.4014 24.3477 24.348 22.4011 24.348 19.9999C24.348 17.5987 22.4014 15.6521 20.0002 15.6521C17.5989 15.6521 15.6523 17.5987 15.6523 19.9999C15.6523 22.4011 17.5989 24.3477 20.0002 24.3477Z" fill="#F0F0F0"/>
<path d="M20.0018 14.6348L21.3431 17.6768L24.6481 17.3173L22.6844 19.9999L24.6481 22.6825L21.3431 22.323L20.0018 25.3651L18.6605 22.323L15.3555 22.6824L17.3192 19.9999L15.3555 17.3173L18.6605 17.6768L20.0018 14.6348Z" fill="#0052B4"/>
</g>
<defs>
<clipPath id="clip0_141_32803">
<rect width="40" height="40" fill="white"/>
</clipPath>
</defs>
</svg>
