<svg width="20" height="20" viewBox="0 0 20 20" fill="none" xmlns="http://www.w3.org/2000/svg">
<g clip-path="url(#clip0_392_4389)">
<path d="M16.6666 3.33331C17.0871 3.33318 17.4921 3.49199 17.8004 3.77789C18.1087 4.0638 18.2976 4.45568 18.3291 4.87498L18.3333 4.99998V15C18.3334 15.4205 18.1746 15.8255 17.8887 16.1338C17.6028 16.4421 17.2109 16.6309 16.7916 16.6625L16.6666 16.6666H3.33329C2.91281 16.6668 2.50782 16.508 2.1995 16.2221C1.89118 15.9362 1.70233 15.5443 1.67079 15.125L1.66663 15V4.99998C1.66649 4.5795 1.8253 4.17451 2.11121 3.86619C2.39712 3.55787 2.789 3.36902 3.20829 3.33748L3.33329 3.33331H16.6666ZM16.6666 6.17831L10.8833 11.9616C10.6489 12.1957 10.3312 12.3272 9.99996 12.3272C9.66871 12.3272 9.351 12.1957 9.11663 11.9616L3.33329 6.17831V15H16.6666V6.17831ZM15.4883 4.99998H4.51163L9.99996 10.4883L15.4883 4.99998Z" fill="#0A1929" fill-opacity="0.85"/>
</g>
<defs>
<clipPath id="clip0_392_4389">
<rect width="20" height="20" fill="white"/>
</clipPath>
</defs>
</svg>
