<svg width="20" height="20" viewBox="0 0 20 20" fill="none" xmlns="http://www.w3.org/2000/svg">
<path d="M10.0001 3.33337C10.7126 3.33337 11.4434 3.35171 12.1517 3.38171L12.9884 3.42171L13.7892 3.46921L14.5392 3.52004L15.2242 3.57337C15.9676 3.63027 16.6671 3.9475 17.1997 4.46924C17.7323 4.99098 18.0638 5.68382 18.1359 6.42587L18.1692 6.78004L18.2317 7.53837C18.2901 8.32421 18.3334 9.18087 18.3334 10C18.3334 10.8192 18.2901 11.6759 18.2317 12.4617L18.1692 13.22C18.1584 13.3417 18.1476 13.4592 18.1359 13.5742C18.0637 14.3164 17.7321 15.0093 17.1994 15.5311C16.6666 16.0529 15.9669 16.37 15.2234 16.4267L14.5401 16.4792L13.7901 16.5309L12.9884 16.5784L12.1517 16.6184C11.4434 16.6484 10.7126 16.6667 10.0001 16.6667C9.28758 16.6667 8.55675 16.6484 7.84842 16.6184L7.01175 16.5784L6.21092 16.5309L5.46091 16.4792L4.77591 16.4267C4.03254 16.3698 3.33304 16.0526 2.80048 15.5308C2.26791 15.0091 1.93639 14.3163 1.86425 13.5742L1.83091 13.22L1.76841 12.4617C1.7047 11.6427 1.67078 10.8216 1.66675 10C1.66675 9.18087 1.71008 8.32421 1.76841 7.53837L1.83091 6.78004C1.84175 6.65837 1.85258 6.54087 1.86425 6.42587C1.93637 5.68396 2.26776 4.99122 2.80016 4.46949C3.33255 3.94777 4.03186 3.63046 4.77508 3.57337L5.45925 3.52004L6.20925 3.46921L7.01092 3.42171L7.84758 3.38171C8.55675 3.35171 9.28758 3.33337 10.0001 3.33337ZM10.0001 5.00004C9.31258 5.00004 8.60508 5.01837 7.91675 5.04671L7.10175 5.08587L6.31925 5.13171L5.58425 5.18171L4.91091 5.23421C4.55702 5.25932 4.22345 5.40891 3.96933 5.65648C3.7152 5.90405 3.55693 6.23359 3.52258 6.58671C3.42508 7.59421 3.33341 8.84837 3.33341 10C3.33341 11.1517 3.42508 12.4059 3.52258 13.4134C3.59342 14.14 4.17008 14.705 4.91091 14.7659L5.58425 14.8175L6.31925 14.8675L7.10175 14.9142L7.91675 14.9534C8.60508 14.9817 9.31258 15 10.0001 15C10.6876 15 11.3951 14.9817 12.0834 14.9534L12.8984 14.9142L13.6809 14.8684L14.4159 14.8184L15.0892 14.7659C15.4431 14.7408 15.7767 14.5912 16.0308 14.3436C16.285 14.096 16.4432 13.7665 16.4776 13.4134C16.5751 12.4059 16.6667 11.1517 16.6667 10C16.6667 8.84837 16.5751 7.59421 16.4776 6.58671C16.4432 6.23359 16.285 5.90405 16.0308 5.65648C15.7767 5.40891 15.4431 5.25932 15.0892 5.23421L14.4159 5.18254L13.6809 5.13254L12.8984 5.08587L12.0834 5.04671C11.3894 5.01685 10.6948 5.00129 10.0001 5.00004ZM8.33342 7.97921C8.33336 7.89776 8.35321 7.81753 8.39122 7.7455C8.42924 7.67347 8.48427 7.61182 8.55154 7.5659C8.61881 7.51999 8.69628 7.4912 8.77721 7.48205C8.85815 7.47289 8.94009 7.48365 9.01592 7.51337L9.08341 7.54671L12.5834 9.56671C12.6531 9.60692 12.7121 9.66336 12.7553 9.73124C12.7985 9.79911 12.8247 9.87642 12.8317 9.95658C12.8386 10.0367 12.8261 10.1174 12.7952 10.1917C12.7643 10.266 12.716 10.3318 12.6542 10.3834L12.5834 10.4334L9.08341 12.4542C9.01288 12.495 8.93344 12.518 8.85199 12.5212C8.77055 12.5243 8.68958 12.5074 8.61613 12.4721C8.54268 12.4368 8.47898 12.384 8.43058 12.3185C8.38217 12.2529 8.35054 12.1765 8.33841 12.0959L8.33342 12.0209V7.97921Z" fill="#0A1929" fill-opacity="0.65"/>
</svg>
